<svg width="27" height="26" viewBox="0 0 27 26" fill="none" xmlns="http://www.w3.org/2000/svg">
<path d="M0.982422 4.03477C0.982422 3.18742 1.31903 2.37478 1.91819 1.77562C2.51736 1.17645 3.33 0.839844 4.17735 0.839844L23.3469 0.839844C24.1943 0.839844 25.0069 1.17645 25.6061 1.77562C26.2052 2.37478 26.5418 3.18742 26.5418 4.03477V16.8145C26.5418 17.6618 26.2052 18.4745 25.6061 19.0736C25.0069 19.6728 24.1943 20.0094 23.3469 20.0094H8.03363C7.60999 20.0095 7.20373 20.1779 6.90422 20.4775L2.34666 25.035C2.23504 25.1469 2.09274 25.2232 1.93776 25.2542C1.78278 25.2852 1.6221 25.2695 1.47604 25.2091C1.32998 25.1487 1.20511 25.0464 1.11724 24.915C1.02938 24.7836 0.982455 24.6292 0.982422 24.4711V4.03477ZM6.57354 5.63223C6.36171 5.63223 6.15855 5.71639 6.00876 5.86618C5.85896 6.01597 5.77481 6.21913 5.77481 6.43097C5.77481 6.6428 5.85896 6.84596 6.00876 6.99575C6.15855 7.14555 6.36171 7.2297 6.57354 7.2297H20.9507C21.1626 7.2297 21.3657 7.14555 21.5155 6.99575C21.6653 6.84596 21.7495 6.6428 21.7495 6.43097C21.7495 6.21913 21.6653 6.01597 21.5155 5.86618C21.3657 5.71639 21.1626 5.63223 20.9507 5.63223H6.57354ZM6.57354 9.62589C6.36171 9.62589 6.15855 9.71004 6.00876 9.85984C5.85896 10.0096 5.77481 10.2128 5.77481 10.4246C5.77481 10.6365 5.85896 10.8396 6.00876 10.9894C6.15855 11.1392 6.36171 11.2234 6.57354 11.2234H20.9507C21.1626 11.2234 21.3657 11.1392 21.5155 10.9894C21.6653 10.8396 21.7495 10.6365 21.7495 10.4246C21.7495 10.2128 21.6653 10.0096 21.5155 9.85984C21.3657 9.71004 21.1626 9.62589 20.9507 9.62589H6.57354ZM6.57354 13.6196C6.36171 13.6196 6.15855 13.7037 6.00876 13.8535C5.85896 14.0033 5.77481 14.2064 5.77481 14.4183C5.77481 14.6301 5.85896 14.8333 6.00876 14.9831C6.15855 15.1329 6.36171 15.217 6.57354 15.217H14.5609C14.7727 15.217 14.9759 15.1329 15.1257 14.9831C15.2754 14.8333 15.3596 14.6301 15.3596 14.4183C15.3596 14.2064 15.2754 14.0033 15.1257 13.8535C14.9759 13.7037 14.7727 13.6196 14.5609 13.6196H6.57354Z" fill="white"/>
</svg>
